<mxfile host="65bd71144e">
    <diagram id="n6Fu9l716Z7s-wK77Wlo" name="Page-1">
        <mxGraphModel dx="2850" dy="1435" grid="0" gridSize="10" guides="1" tooltips="1" connect="1" arrows="1" fold="1" page="0" pageScale="1" pageWidth="827" pageHeight="1169" background="#ffffff" math="0" shadow="0">
            <root>
                <mxCell id="0"/>
                <mxCell id="1" parent="0"/>
                <mxCell id="42" style="edgeStyle=none;html=1;entryX=0;entryY=0.5;entryDx=0;entryDy=0;endArrow=none;endFill=0;strokeWidth=1;strokeColor=#666666;fillColor=#f5f5f5;fontStyle=1;labelBackgroundColor=none;fontColor=#030303;" edge="1" parent="1" source="2" target="41">
                    <mxGeometry relative="1" as="geometry"/>
                </mxCell>
                <mxCell id="2" value="CR_HCONTROL" style="rounded=0;whiteSpace=wrap;html=1;strokeColor=#666666;fillColor=#f5f5f5;fontColor=#030303;fontStyle=1;labelBackgroundColor=none;" vertex="1" parent="1">
                    <mxGeometry x="200" y="340" width="140" height="50" as="geometry"/>
                </mxCell>
                <mxCell id="26" style="edgeStyle=none;html=1;exitX=0.5;exitY=1;exitDx=0;exitDy=0;entryX=0.5;entryY=0;entryDx=0;entryDy=0;endArrow=none;endFill=0;strokeWidth=1;strokeColor=#666666;fillColor=#f5f5f5;fontStyle=1;labelBackgroundColor=none;fontColor=#030303;" edge="1" parent="1" source="3" target="2">
                    <mxGeometry relative="1" as="geometry"/>
                </mxCell>
                <mxCell id="3" value="CRH_CONO" style="ellipse;whiteSpace=wrap;html=1;strokeColor=#666666;fillColor=#f5f5f5;fontColor=#030303;fontStyle=1;labelBackgroundColor=none;" vertex="1" parent="1">
                    <mxGeometry x="160" y="77" width="130" height="60" as="geometry"/>
                </mxCell>
                <mxCell id="28" style="edgeStyle=none;html=1;exitX=0;exitY=1;exitDx=0;exitDy=0;entryX=0.5;entryY=0;entryDx=0;entryDy=0;endArrow=none;endFill=0;strokeWidth=1;strokeColor=#666666;fillColor=#f5f5f5;fontStyle=1;labelBackgroundColor=none;fontColor=#030303;" edge="1" parent="1" source="4" target="2">
                    <mxGeometry relative="1" as="geometry"/>
                </mxCell>
                <mxCell id="4" value="CRH_CONO" style="ellipse;whiteSpace=wrap;html=1;strokeColor=#666666;fillColor=#f5f5f5;fontColor=#030303;fontStyle=1;labelBackgroundColor=none;" vertex="1" parent="1">
                    <mxGeometry x="370" y="130" width="130" height="60" as="geometry"/>
                </mxCell>
                <mxCell id="29" style="edgeStyle=none;html=1;exitX=0;exitY=1;exitDx=0;exitDy=0;endArrow=none;endFill=0;strokeWidth=1;strokeColor=#666666;fillColor=#f5f5f5;fontStyle=1;labelBackgroundColor=none;fontColor=#030303;" edge="1" parent="1" source="5">
                    <mxGeometry relative="1" as="geometry">
                        <mxPoint x="340" y="370" as="targetPoint"/>
                    </mxGeometry>
                </mxCell>
                <mxCell id="5" value="CRH_CONO" style="ellipse;whiteSpace=wrap;html=1;strokeColor=#666666;fillColor=#f5f5f5;fontColor=#030303;fontStyle=1;labelBackgroundColor=none;" vertex="1" parent="1">
                    <mxGeometry x="440" y="190" width="130" height="60" as="geometry"/>
                </mxCell>
                <mxCell id="30" style="edgeStyle=none;html=1;exitX=0;exitY=1;exitDx=0;exitDy=0;endArrow=none;endFill=0;strokeWidth=1;strokeColor=#666666;fillColor=#f5f5f5;fontStyle=1;labelBackgroundColor=none;fontColor=#030303;" edge="1" parent="1" source="6">
                    <mxGeometry relative="1" as="geometry">
                        <mxPoint x="340" y="370" as="targetPoint"/>
                    </mxGeometry>
                </mxCell>
                <mxCell id="6" value="CRH_CONO" style="ellipse;whiteSpace=wrap;html=1;strokeColor=#666666;fillColor=#f5f5f5;fontColor=#030303;fontStyle=1;labelBackgroundColor=none;" vertex="1" parent="1">
                    <mxGeometry x="460" y="260" width="130" height="60" as="geometry"/>
                </mxCell>
                <mxCell id="31" style="edgeStyle=none;html=1;exitX=0;exitY=0.5;exitDx=0;exitDy=0;endArrow=none;endFill=0;strokeWidth=1;strokeColor=#666666;fillColor=#f5f5f5;fontStyle=1;labelBackgroundColor=none;fontColor=#030303;" edge="1" parent="1" source="7">
                    <mxGeometry relative="1" as="geometry">
                        <mxPoint x="340" y="370" as="targetPoint"/>
                    </mxGeometry>
                </mxCell>
                <mxCell id="7" value="CRH_CONO" style="ellipse;whiteSpace=wrap;html=1;strokeColor=#666666;fillColor=#f5f5f5;fontColor=#030303;fontStyle=1;labelBackgroundColor=none;" vertex="1" parent="1">
                    <mxGeometry x="495" y="465" width="130" height="60" as="geometry"/>
                </mxCell>
                <mxCell id="23" style="edgeStyle=none;html=1;entryX=0.5;entryY=0;entryDx=0;entryDy=0;endArrow=none;endFill=0;strokeWidth=1;strokeColor=#666666;fillColor=#f5f5f5;fontStyle=1;labelBackgroundColor=none;fontColor=#030303;" edge="1" parent="1" source="14" target="45">
                    <mxGeometry relative="1" as="geometry"/>
                </mxCell>
                <mxCell id="14" value="CRH_CONO" style="ellipse;whiteSpace=wrap;html=1;strokeColor=#666666;fillColor=#f5f5f5;fontColor=#030303;fontStyle=1;labelBackgroundColor=none;" vertex="1" parent="1">
                    <mxGeometry x="20" y="270" width="130" height="60" as="geometry"/>
                </mxCell>
                <mxCell id="24" style="edgeStyle=none;html=1;endArrow=none;endFill=0;strokeWidth=1;strokeColor=#666666;fillColor=#f5f5f5;fontStyle=1;labelBackgroundColor=none;fontColor=#030303;" edge="1" parent="1" source="15">
                    <mxGeometry relative="1" as="geometry">
                        <mxPoint x="270" y="340" as="targetPoint"/>
                    </mxGeometry>
                </mxCell>
                <mxCell id="15" value="CRH_CONO" style="ellipse;whiteSpace=wrap;html=1;strokeColor=#666666;fillColor=#f5f5f5;fontColor=#030303;fontStyle=1;labelBackgroundColor=none;" vertex="1" parent="1">
                    <mxGeometry x="30" y="200" width="130" height="60" as="geometry"/>
                </mxCell>
                <mxCell id="27" style="edgeStyle=none;html=1;exitX=0.5;exitY=1;exitDx=0;exitDy=0;endArrow=none;endFill=0;strokeWidth=1;strokeColor=#666666;fillColor=#f5f5f5;fontStyle=1;labelBackgroundColor=none;fontColor=#030303;" edge="1" parent="1" source="16">
                    <mxGeometry relative="1" as="geometry">
                        <mxPoint x="270" y="340" as="targetPoint"/>
                    </mxGeometry>
                </mxCell>
                <mxCell id="16" value="CRH_CONO" style="ellipse;whiteSpace=wrap;html=1;strokeColor=#666666;fillColor=#f5f5f5;fontColor=#030303;fontStyle=1;labelBackgroundColor=none;" vertex="1" parent="1">
                    <mxGeometry x="290" y="80" width="130" height="60" as="geometry"/>
                </mxCell>
                <mxCell id="25" style="edgeStyle=none;html=1;exitX=1;exitY=1;exitDx=0;exitDy=0;endArrow=none;endFill=0;strokeWidth=1;strokeColor=#666666;fillColor=#f5f5f5;fontStyle=1;labelBackgroundColor=none;fontColor=#030303;" edge="1" parent="1" source="17">
                    <mxGeometry relative="1" as="geometry">
                        <mxPoint x="270" y="340" as="targetPoint"/>
                    </mxGeometry>
                </mxCell>
                <mxCell id="17" value="CRH_CONO" style="ellipse;whiteSpace=wrap;html=1;strokeColor=#666666;fillColor=#f5f5f5;fontColor=#030303;fontStyle=1;labelBackgroundColor=none;" vertex="1" parent="1">
                    <mxGeometry x="60" y="130" width="130" height="60" as="geometry"/>
                </mxCell>
                <mxCell id="41" value="Have" style="rhombus;whiteSpace=wrap;html=1;strokeColor=#666666;fillColor=#f5f5f5;fontColor=#030303;fontStyle=1;labelBackgroundColor=none;" vertex="1" parent="1">
                    <mxGeometry x="570" y="330" width="80" height="80" as="geometry"/>
                </mxCell>
                <mxCell id="44" style="edgeStyle=none;html=1;entryX=1;entryY=0.5;entryDx=0;entryDy=0;strokeWidth=1;endArrow=none;endFill=0;exitX=0;exitY=1;exitDx=0;exitDy=0;strokeColor=#666666;fillColor=#f5f5f5;fontStyle=1;labelBackgroundColor=none;fontColor=#030303;" edge="1" source="45" target="66" parent="1">
                    <mxGeometry relative="1" as="geometry"/>
                </mxCell>
                <mxCell id="110" style="edgeStyle=none;html=1;exitX=0.25;exitY=1;exitDx=0;exitDy=0;labelBackgroundColor=none;fontColor=#030303;endArrow=none;endFill=0;strokeColor=#0000CC;strokeWidth=1;" edge="1" parent="1" target="109">
                    <mxGeometry relative="1" as="geometry">
                        <mxPoint x="259" y="390" as="sourcePoint"/>
                    </mxGeometry>
                </mxCell>
                <mxCell id="45" value="CR_HCONTROL" style="rounded=0;whiteSpace=wrap;html=1;strokeColor=#666666;fillColor=#f5f5f5;fontColor=#030303;fontStyle=1;labelBackgroundColor=none;" vertex="1" parent="1">
                    <mxGeometry x="200" y="340" width="140" height="50" as="geometry"/>
                </mxCell>
                <mxCell id="48" style="edgeStyle=none;html=1;exitX=0;exitY=1;exitDx=0;exitDy=0;entryX=0.5;entryY=0;entryDx=0;entryDy=0;endArrow=none;endFill=0;strokeWidth=1;strokeColor=#666666;fillColor=#f5f5f5;fontStyle=1;labelBackgroundColor=none;fontColor=#030303;" edge="1" source="49" target="45" parent="1">
                    <mxGeometry relative="1" as="geometry"/>
                </mxCell>
                <mxCell id="49" value="CRH_CONO" style="ellipse;whiteSpace=wrap;html=1;strokeColor=#666666;fillColor=#f5f5f5;fontColor=#030303;fontStyle=1;labelBackgroundColor=none;" vertex="1" parent="1">
                    <mxGeometry x="370" y="130" width="130" height="60" as="geometry"/>
                </mxCell>
                <mxCell id="50" style="edgeStyle=none;html=1;exitX=0;exitY=1;exitDx=0;exitDy=0;endArrow=none;endFill=0;strokeWidth=1;strokeColor=#666666;fillColor=#f5f5f5;fontStyle=1;labelBackgroundColor=none;fontColor=#030303;" edge="1" source="51" parent="1">
                    <mxGeometry relative="1" as="geometry">
                        <mxPoint x="340" y="370" as="targetPoint"/>
                    </mxGeometry>
                </mxCell>
                <mxCell id="51" value="CRH_CONO" style="ellipse;whiteSpace=wrap;html=1;strokeColor=#666666;fillColor=#f5f5f5;fontColor=#030303;fontStyle=1;labelBackgroundColor=none;" vertex="1" parent="1">
                    <mxGeometry x="440" y="190" width="130" height="60" as="geometry"/>
                </mxCell>
                <mxCell id="52" style="edgeStyle=none;html=1;exitX=0;exitY=1;exitDx=0;exitDy=0;endArrow=none;endFill=0;strokeWidth=1;strokeColor=#666666;fillColor=#f5f5f5;fontStyle=1;labelBackgroundColor=none;fontColor=#030303;" edge="1" source="53" parent="1">
                    <mxGeometry relative="1" as="geometry">
                        <mxPoint x="340" y="370" as="targetPoint"/>
                    </mxGeometry>
                </mxCell>
                <mxCell id="53" value="CRH_CONO" style="ellipse;whiteSpace=wrap;html=1;strokeColor=#666666;fillColor=#f5f5f5;fontColor=#030303;fontStyle=1;labelBackgroundColor=none;" vertex="1" parent="1">
                    <mxGeometry x="460" y="260" width="130" height="60" as="geometry"/>
                </mxCell>
                <mxCell id="54" style="edgeStyle=none;html=1;exitX=0;exitY=0.5;exitDx=0;exitDy=0;endArrow=none;endFill=0;strokeWidth=1;strokeColor=#666666;fillColor=#f5f5f5;fontStyle=1;labelBackgroundColor=none;fontColor=#030303;" edge="1" source="55" parent="1">
                    <mxGeometry relative="1" as="geometry">
                        <mxPoint x="340" y="370" as="targetPoint"/>
                    </mxGeometry>
                </mxCell>
                <mxCell id="55" value="CRH_CONO" style="ellipse;whiteSpace=wrap;html=1;strokeColor=#666666;fillColor=#f5f5f5;fontColor=#030303;fontStyle=1;labelBackgroundColor=none;" vertex="1" parent="1">
                    <mxGeometry x="466" y="390" width="130" height="60" as="geometry"/>
                </mxCell>
                <mxCell id="56" style="edgeStyle=none;html=1;exitX=0;exitY=0;exitDx=0;exitDy=0;endArrow=none;endFill=0;strokeWidth=1;strokeColor=#666666;fillColor=#f5f5f5;fontStyle=1;labelBackgroundColor=none;fontColor=#030303;" edge="1" source="57" parent="1">
                    <mxGeometry relative="1" as="geometry">
                        <mxPoint x="280" y="390" as="targetPoint"/>
                    </mxGeometry>
                </mxCell>
                <mxCell id="57" value="CRH_CONO" style="ellipse;whiteSpace=wrap;html=1;strokeColor=#666666;fillColor=#f5f5f5;fontColor=#030303;fontStyle=1;labelBackgroundColor=none;" vertex="1" parent="1">
                    <mxGeometry x="513" y="540" width="130" height="60" as="geometry"/>
                </mxCell>
                <mxCell id="58" style="edgeStyle=none;html=1;exitX=0.5;exitY=0;exitDx=0;exitDy=0;endArrow=none;endFill=0;strokeWidth=1;strokeColor=#666666;fillColor=#f5f5f5;fontStyle=1;labelBackgroundColor=none;fontColor=#030303;" edge="1" source="59" parent="1">
                    <mxGeometry relative="1" as="geometry">
                        <mxPoint x="280" y="390" as="targetPoint"/>
                    </mxGeometry>
                </mxCell>
                <mxCell id="59" value="CRH_CONO" style="ellipse;whiteSpace=wrap;html=1;strokeColor=#666666;fillColor=#f5f5f5;fontColor=#030303;fontStyle=1;labelBackgroundColor=none;" vertex="1" parent="1">
                    <mxGeometry x="417" y="586" width="130" height="60" as="geometry"/>
                </mxCell>
                <mxCell id="60" style="edgeStyle=none;html=1;exitX=0.5;exitY=0;exitDx=0;exitDy=0;endArrow=none;endFill=0;strokeWidth=1;strokeColor=#666666;fillColor=#f5f5f5;fontStyle=1;labelBackgroundColor=none;fontColor=#030303;" edge="1" source="61" parent="1">
                    <mxGeometry relative="1" as="geometry">
                        <mxPoint x="280" y="390" as="targetPoint"/>
                    </mxGeometry>
                </mxCell>
                <mxCell id="61" value="CRH_CONO" style="ellipse;whiteSpace=wrap;html=1;strokeColor=#666666;fillColor=#f5f5f5;fontColor=#030303;fontStyle=1;labelBackgroundColor=none;" vertex="1" parent="1">
                    <mxGeometry x="297" y="565" width="130" height="60" as="geometry"/>
                </mxCell>
                <mxCell id="62" style="edgeStyle=none;html=1;endArrow=none;endFill=0;strokeWidth=1;strokeColor=#666666;fillColor=#f5f5f5;fontStyle=1;labelBackgroundColor=none;fontColor=#030303;entryX=0;entryY=1;entryDx=0;entryDy=0;" edge="1" source="63" parent="1" target="45">
                    <mxGeometry relative="1" as="geometry">
                        <mxPoint x="197" y="370" as="targetPoint"/>
                    </mxGeometry>
                </mxCell>
                <mxCell id="63" value="CRH_CONO" style="ellipse;whiteSpace=wrap;html=1;strokeColor=#666666;fillColor=#f5f5f5;fontColor=#030303;fontStyle=1;labelBackgroundColor=none;" vertex="1" parent="1">
                    <mxGeometry x="78" y="610" width="130" height="60" as="geometry"/>
                </mxCell>
                <mxCell id="64" style="edgeStyle=none;html=1;exitX=1;exitY=0;exitDx=0;exitDy=0;endArrow=none;endFill=0;strokeWidth=1;strokeColor=#666666;fillColor=#f5f5f5;fontStyle=1;labelBackgroundColor=none;fontColor=#030303;entryX=0;entryY=1;entryDx=0;entryDy=0;" edge="1" source="65" parent="1" target="45">
                    <mxGeometry relative="1" as="geometry">
                        <mxPoint x="280" y="390" as="targetPoint"/>
                    </mxGeometry>
                </mxCell>
                <mxCell id="65" value="CRH_CONO" style="ellipse;whiteSpace=wrap;html=1;strokeColor=#666666;fillColor=#f5f5f5;fontColor=#030303;fontStyle=1;labelBackgroundColor=none;" vertex="1" parent="1">
                    <mxGeometry x="20" y="535" width="130" height="60" as="geometry"/>
                </mxCell>
                <mxCell id="66" value="CRH_CONO" style="ellipse;whiteSpace=wrap;html=1;strokeColor=#666666;fillColor=#f5f5f5;fontColor=#030303;fontStyle=1;labelBackgroundColor=none;" vertex="1" parent="1">
                    <mxGeometry x="5" y="457" width="130" height="60" as="geometry"/>
                </mxCell>
                <mxCell id="71" style="edgeStyle=none;html=1;exitX=0.5;exitY=1;exitDx=0;exitDy=0;endArrow=none;endFill=0;strokeWidth=1;strokeColor=#666666;fillColor=#f5f5f5;fontStyle=1;labelBackgroundColor=none;fontColor=#030303;" edge="1" source="72" parent="1">
                    <mxGeometry relative="1" as="geometry">
                        <mxPoint x="270" y="340" as="targetPoint"/>
                    </mxGeometry>
                </mxCell>
                <mxCell id="72" value="CRH_CONO" style="ellipse;whiteSpace=wrap;html=1;strokeColor=#666666;fillColor=#f5f5f5;fontColor=#030303;fontStyle=1;labelBackgroundColor=none;" vertex="1" parent="1">
                    <mxGeometry x="290" y="80" width="130" height="60" as="geometry"/>
                </mxCell>
                <mxCell id="107" style="edgeStyle=none;html=1;entryX=0;entryY=0.5;entryDx=0;entryDy=0;labelBackgroundColor=none;fontColor=#030303;endArrow=none;endFill=0;strokeColor=#0000CC;strokeWidth=1;" edge="1" parent="1" source="75" target="77">
                    <mxGeometry relative="1" as="geometry"/>
                </mxCell>
                <mxCell id="75" value="Have" style="rhombus;whiteSpace=wrap;html=1;strokeColor=#666666;fillColor=#f5f5f5;fontColor=#030303;fontStyle=1;labelBackgroundColor=none;" vertex="1" parent="1">
                    <mxGeometry x="570" y="330" width="80" height="80" as="geometry"/>
                </mxCell>
                <mxCell id="77" value="CR_HCONTROL" style="rounded=0;whiteSpace=wrap;html=1;strokeColor=#666666;fillColor=#f5f5f5;fontColor=#030303;fontStyle=1;labelBackgroundColor=none;" vertex="1" parent="1">
                    <mxGeometry x="855" y="345" width="140" height="50" as="geometry"/>
                </mxCell>
                <mxCell id="78" style="edgeStyle=none;html=1;exitX=0.5;exitY=1;exitDx=0;exitDy=0;entryX=0.5;entryY=0;entryDx=0;entryDy=0;endArrow=none;endFill=0;strokeWidth=1;strokeColor=#666666;fillColor=#f5f5f5;fontStyle=1;labelBackgroundColor=none;fontColor=#030303;" edge="1" parent="1" source="79" target="77">
                    <mxGeometry relative="1" as="geometry"/>
                </mxCell>
                <mxCell id="79" value="CRH_CONO" style="ellipse;whiteSpace=wrap;html=1;strokeColor=#666666;fillColor=#f5f5f5;fontColor=#030303;fontStyle=1;labelBackgroundColor=none;" vertex="1" parent="1">
                    <mxGeometry x="805" y="95" width="130" height="60" as="geometry"/>
                </mxCell>
                <mxCell id="80" style="edgeStyle=none;html=1;exitX=0;exitY=1;exitDx=0;exitDy=0;entryX=0.5;entryY=0;entryDx=0;entryDy=0;endArrow=none;endFill=0;strokeWidth=1;strokeColor=#666666;fillColor=#f5f5f5;fontStyle=1;labelBackgroundColor=none;fontColor=#030303;" edge="1" parent="1" source="81" target="77">
                    <mxGeometry relative="1" as="geometry"/>
                </mxCell>
                <mxCell id="81" value="CRH_CONO" style="ellipse;whiteSpace=wrap;html=1;strokeColor=#666666;fillColor=#f5f5f5;fontColor=#030303;fontStyle=1;labelBackgroundColor=none;" vertex="1" parent="1">
                    <mxGeometry x="1025" y="135" width="130" height="60" as="geometry"/>
                </mxCell>
                <mxCell id="82" style="edgeStyle=none;html=1;exitX=0;exitY=1;exitDx=0;exitDy=0;endArrow=none;endFill=0;strokeWidth=1;strokeColor=#666666;fillColor=#f5f5f5;fontStyle=1;labelBackgroundColor=none;fontColor=#030303;" edge="1" parent="1" source="83">
                    <mxGeometry relative="1" as="geometry">
                        <mxPoint x="995" y="375" as="targetPoint"/>
                    </mxGeometry>
                </mxCell>
                <mxCell id="83" value="CRH_CONO" style="ellipse;whiteSpace=wrap;html=1;strokeColor=#666666;fillColor=#f5f5f5;fontColor=#030303;fontStyle=1;labelBackgroundColor=none;" vertex="1" parent="1">
                    <mxGeometry x="1095" y="195" width="130" height="60" as="geometry"/>
                </mxCell>
                <mxCell id="84" style="edgeStyle=none;html=1;exitX=0;exitY=1;exitDx=0;exitDy=0;endArrow=none;endFill=0;strokeWidth=1;strokeColor=#666666;fillColor=#f5f5f5;fontStyle=1;labelBackgroundColor=none;fontColor=#030303;" edge="1" parent="1" source="85">
                    <mxGeometry relative="1" as="geometry">
                        <mxPoint x="995" y="375" as="targetPoint"/>
                    </mxGeometry>
                </mxCell>
                <mxCell id="85" value="CRH_CONO" style="ellipse;whiteSpace=wrap;html=1;strokeColor=#666666;fillColor=#f5f5f5;fontColor=#030303;fontStyle=1;labelBackgroundColor=none;" vertex="1" parent="1">
                    <mxGeometry x="1115" y="265" width="130" height="60" as="geometry"/>
                </mxCell>
                <mxCell id="86" style="edgeStyle=none;html=1;exitX=0;exitY=0.5;exitDx=0;exitDy=0;endArrow=none;endFill=0;strokeWidth=1;strokeColor=#666666;fillColor=#f5f5f5;fontStyle=1;labelBackgroundColor=none;fontColor=#030303;" edge="1" parent="1" source="87">
                    <mxGeometry relative="1" as="geometry">
                        <mxPoint x="995" y="375" as="targetPoint"/>
                    </mxGeometry>
                </mxCell>
                <mxCell id="87" value="CRH_CONO" style="ellipse;whiteSpace=wrap;html=1;strokeColor=#666666;fillColor=#f5f5f5;fontColor=#030303;fontStyle=1;labelBackgroundColor=none;" vertex="1" parent="1">
                    <mxGeometry x="1105" y="465" width="130" height="60" as="geometry"/>
                </mxCell>
                <mxCell id="88" style="edgeStyle=none;html=1;exitX=0;exitY=0;exitDx=0;exitDy=0;endArrow=none;endFill=0;strokeWidth=1;strokeColor=#666666;fillColor=#f5f5f5;fontStyle=1;labelBackgroundColor=none;fontColor=#030303;" edge="1" parent="1" source="89">
                    <mxGeometry relative="1" as="geometry">
                        <mxPoint x="935" y="395" as="targetPoint"/>
                    </mxGeometry>
                </mxCell>
                <mxCell id="89" value="CRH_CONO" style="ellipse;whiteSpace=wrap;html=1;strokeColor=#666666;fillColor=#f5f5f5;fontColor=#030303;fontStyle=1;labelBackgroundColor=none;" vertex="1" parent="1">
                    <mxGeometry x="1080" y="535" width="130" height="60" as="geometry"/>
                </mxCell>
                <mxCell id="90" style="edgeStyle=none;html=1;exitX=0.5;exitY=0;exitDx=0;exitDy=0;endArrow=none;endFill=0;strokeWidth=1;strokeColor=#666666;fillColor=#f5f5f5;fontStyle=1;labelBackgroundColor=none;fontColor=#030303;" edge="1" parent="1" source="91">
                    <mxGeometry relative="1" as="geometry">
                        <mxPoint x="935" y="395" as="targetPoint"/>
                    </mxGeometry>
                </mxCell>
                <mxCell id="91" value="CRH_CONO" style="ellipse;whiteSpace=wrap;html=1;strokeColor=#666666;fillColor=#f5f5f5;fontColor=#030303;fontStyle=1;labelBackgroundColor=none;" vertex="1" parent="1">
                    <mxGeometry x="950" y="565" width="130" height="60" as="geometry"/>
                </mxCell>
                <mxCell id="92" style="edgeStyle=none;html=1;exitX=0.5;exitY=0;exitDx=0;exitDy=0;endArrow=none;endFill=0;strokeWidth=1;strokeColor=#666666;fillColor=#f5f5f5;fontStyle=1;labelBackgroundColor=none;fontColor=#030303;" edge="1" parent="1" source="93">
                    <mxGeometry relative="1" as="geometry">
                        <mxPoint x="935" y="395" as="targetPoint"/>
                    </mxGeometry>
                </mxCell>
                <mxCell id="93" value="CRH_CONO" style="ellipse;whiteSpace=wrap;html=1;strokeColor=#666666;fillColor=#f5f5f5;fontColor=#030303;fontStyle=1;labelBackgroundColor=none;" vertex="1" parent="1">
                    <mxGeometry x="815" y="565" width="130" height="60" as="geometry"/>
                </mxCell>
                <mxCell id="94" style="edgeStyle=none;html=1;exitX=1;exitY=0;exitDx=0;exitDy=0;endArrow=none;endFill=0;strokeWidth=1;strokeColor=#666666;fillColor=#f5f5f5;fontStyle=1;labelBackgroundColor=none;fontColor=#030303;" edge="1" parent="1" source="95">
                    <mxGeometry relative="1" as="geometry">
                        <mxPoint x="935" y="395" as="targetPoint"/>
                    </mxGeometry>
                </mxCell>
                <mxCell id="95" value="CRH_CONO" style="ellipse;whiteSpace=wrap;html=1;strokeColor=#666666;fillColor=#f5f5f5;fontColor=#030303;fontStyle=1;labelBackgroundColor=none;" vertex="1" parent="1">
                    <mxGeometry x="685" y="545" width="130" height="60" as="geometry"/>
                </mxCell>
                <mxCell id="96" style="edgeStyle=none;html=1;exitX=1;exitY=0;exitDx=0;exitDy=0;endArrow=none;endFill=0;strokeWidth=1;strokeColor=#666666;fillColor=#f5f5f5;fontStyle=1;labelBackgroundColor=none;fontColor=#030303;" edge="1" parent="1" source="97">
                    <mxGeometry relative="1" as="geometry">
                        <mxPoint x="935" y="395" as="targetPoint"/>
                    </mxGeometry>
                </mxCell>
                <mxCell id="97" value="CRH_CONO" style="ellipse;whiteSpace=wrap;html=1;strokeColor=#666666;fillColor=#f5f5f5;fontColor=#030303;fontStyle=1;labelBackgroundColor=none;" vertex="1" parent="1">
                    <mxGeometry x="675" y="465" width="130" height="60" as="geometry"/>
                </mxCell>
                <mxCell id="101" style="edgeStyle=none;html=1;endArrow=none;endFill=0;strokeWidth=1;strokeColor=#666666;fillColor=#f5f5f5;fontStyle=1;labelBackgroundColor=none;fontColor=#030303;" edge="1" parent="1" source="102">
                    <mxGeometry relative="1" as="geometry">
                        <mxPoint x="925" y="345" as="targetPoint"/>
                    </mxGeometry>
                </mxCell>
                <mxCell id="102" value="CRH_CONO" style="ellipse;whiteSpace=wrap;html=1;strokeColor=#666666;fillColor=#f5f5f5;fontColor=#030303;fontStyle=1;labelBackgroundColor=none;" vertex="1" parent="1">
                    <mxGeometry x="685" y="225" width="130" height="60" as="geometry"/>
                </mxCell>
                <mxCell id="103" style="edgeStyle=none;html=1;exitX=0.5;exitY=1;exitDx=0;exitDy=0;endArrow=none;endFill=0;strokeWidth=1;strokeColor=#666666;fillColor=#f5f5f5;fontStyle=1;labelBackgroundColor=none;fontColor=#030303;" edge="1" parent="1" source="104">
                    <mxGeometry relative="1" as="geometry">
                        <mxPoint x="925" y="345" as="targetPoint"/>
                    </mxGeometry>
                </mxCell>
                <mxCell id="104" value="CRH_CONO" style="ellipse;whiteSpace=wrap;html=1;strokeColor=#666666;fillColor=#f5f5f5;fontColor=#030303;fontStyle=1;labelBackgroundColor=none;" vertex="1" parent="1">
                    <mxGeometry x="945" y="85" width="130" height="60" as="geometry"/>
                </mxCell>
                <mxCell id="105" style="edgeStyle=none;html=1;exitX=1;exitY=1;exitDx=0;exitDy=0;endArrow=none;endFill=0;strokeWidth=1;strokeColor=#666666;fillColor=#f5f5f5;fontStyle=1;labelBackgroundColor=none;fontColor=#030303;" edge="1" parent="1" source="106">
                    <mxGeometry relative="1" as="geometry">
                        <mxPoint x="925" y="345" as="targetPoint"/>
                    </mxGeometry>
                </mxCell>
                <mxCell id="106" value="CRH_CONO" style="ellipse;whiteSpace=wrap;html=1;strokeColor=#666666;fillColor=#f5f5f5;fontColor=#030303;fontStyle=1;labelBackgroundColor=none;" vertex="1" parent="1">
                    <mxGeometry x="715" y="155" width="130" height="60" as="geometry"/>
                </mxCell>
                <mxCell id="108" value="CR_HCONTROL" style="rounded=0;whiteSpace=wrap;html=1;strokeColor=#666666;fillColor=#f5f5f5;fontColor=#030303;fontStyle=1;labelBackgroundColor=none;" vertex="1" parent="1">
                    <mxGeometry x="190" y="826" width="140" height="50" as="geometry"/>
                </mxCell>
                <mxCell id="111" value="" style="edgeStyle=none;html=1;labelBackgroundColor=none;fontColor=#030303;endArrow=none;endFill=0;strokeColor=#0000CC;strokeWidth=1;" edge="1" parent="1" source="109" target="108">
                    <mxGeometry relative="1" as="geometry"/>
                </mxCell>
                <mxCell id="109" value="Have" style="rhombus;whiteSpace=wrap;html=1;strokeColor=#666666;fillColor=#f5f5f5;fontColor=#030303;fontStyle=1;labelBackgroundColor=none;" vertex="1" parent="1">
                    <mxGeometry x="220" y="628" width="80" height="80" as="geometry"/>
                </mxCell>
                <mxCell id="113" style="edgeStyle=none;html=1;labelBackgroundColor=none;fontColor=#030303;endArrow=none;endFill=0;strokeColor=#0000CC;strokeWidth=1;" edge="1" parent="1" source="112" target="45">
                    <mxGeometry relative="1" as="geometry"/>
                </mxCell>
                <mxCell id="112" value="Have" style="rhombus;whiteSpace=wrap;html=1;strokeColor=#666666;fillColor=#f5f5f5;fontColor=#030303;fontStyle=1;labelBackgroundColor=none;" vertex="1" parent="1">
                    <mxGeometry x="-144" y="325" width="80" height="80" as="geometry"/>
                </mxCell>
                <mxCell id="115" style="edgeStyle=none;html=1;entryX=0;entryY=0.5;entryDx=0;entryDy=0;labelBackgroundColor=none;fontColor=#030303;endArrow=none;endFill=0;strokeColor=#0000CC;strokeWidth=1;" edge="1" parent="1" source="114" target="112">
                    <mxGeometry relative="1" as="geometry"/>
                </mxCell>
                <mxCell id="114" value="CR_HCONTROL" style="rounded=0;whiteSpace=wrap;html=1;strokeColor=#666666;fillColor=#f5f5f5;fontColor=#030303;fontStyle=1;labelBackgroundColor=none;" vertex="1" parent="1">
                    <mxGeometry x="-406" y="340" width="140" height="50" as="geometry"/>
                </mxCell>
            </root>
        </mxGraphModel>
    </diagram>
</mxfile>